<svg width="512" height="256" viewBox="0 0 512 256" fill="none" xmlns="http://www.w3.org/2000/svg">
<g clip-path="url(#clip0_32_248)">
<path d="M276.764 18.2808C292.546 13.8715 306.465 21.6817 313.931 35.425C328.385 17.48 364.25 16.8287 362.844 45.7643C372.69 44.6602 377.186 51.4858 384.754 52.8125C409.378 28.3895 454.767 116.344 457.099 127.601C467.474 177.688 436.532 236.046 383.877 246.025C345.421 253.311 309.051 243.862 282.836 214.031C280.808 223.082 277.515 235.485 268.589 240.244C256.161 246.87 230.911 241.66 220.643 233.344C209.334 224.185 214.069 202.077 218.214 190.615C213.769 189.974 209.313 188.886 205.573 186.283C194.59 193.545 171.661 194.839 166.617 180.7C151.716 184.076 128.496 194.169 120.26 173.508C110.417 176.845 98.5985 182.957 87.9742 180.299C58.9157 173.027 43.3056 125.509 74.6774 111.061C51.0431 110.459 44.6375 35.3291 61.3946 25.8875C70.67 20.6636 85.8302 20.1524 92.7209 29.1045C92.7209 22.5803 97.9986 17.0835 104.588 17.0825H113.926C123.758 17.0826 134.626 19.2232 136.373 30.2843C151.645 20.6989 171.749 29.3072 173.155 47.3334C178.194 45.4313 183.607 45.4097 188.918 45.4097C193.354 19.1888 236.012 22.7879 233.043 48.4274C242.723 44.3491 254.117 44.4721 263.523 49.2617C263.863 37.6532 262.638 22.2282 276.764 18.2808Z" fill="white"/>
<g clip-path="url(#clip1_32_248)">
<path d="M348.819 234.152C394.828 240.081 436.932 207.59 442.86 161.582C448.789 115.573 416.298 73.4693 370.289 67.5405C324.281 61.6117 282.177 94.1029 276.248 140.111C270.32 186.12 302.811 228.224 348.819 234.152Z" fill="#FF66AA"/>
<g opacity="0.15">
<mask id="mask0_32_248" style="mask-type:luminance" maskUnits="userSpaceOnUse" x="271" y="63" width="177" height="176">
<path d="M348.349 237.805C396.375 243.993 440.324 210.078 446.513 162.052C452.701 114.026 418.786 70.077 370.76 63.8883C322.734 57.6996 278.785 91.6152 272.596 139.641C266.408 187.667 300.323 231.616 348.349 237.805Z" fill="white"/>
</mask>
<g mask="url(#mask0_32_248)">
<path d="M198.935 225.564L380.614 -12.577L495.984 263.843L198.935 225.564Z" fill="#F1F1F2"/>
<path d="M277.915 298.684L459.586 60.6008L574.964 336.963L277.915 298.684Z" fill="#231F20"/>
<path d="M6.45896 216.379L188.13 -21.7044L303.508 254.657L6.45896 216.379Z" fill="#808184"/>
<path d="M294.953 132.621L476.632 -105.52L592.002 170.899L294.953 132.621Z" fill="#929497"/>
<path d="M113.859 240.002L295.53 1.91856L410.908 278.28L113.859 240.002Z" fill="#636466"/>
<path d="M164.82 403.866L346.499 165.725L461.869 442.144L164.82 403.866Z" fill="#59595C"/>
<path d="M164.584 109.338L233.578 18.924L277.398 123.876L164.584 109.338ZM183.697 333.75L252.692 243.335L296.511 348.287L183.697 333.75Z" fill="#A7A8AB"/>
<path d="M332.538 174.357L401.533 83.943L445.352 188.895L332.538 174.357Z" fill="#6D6E70"/>
<path d="M409.893 234.479L444.357 189.297L466.242 241.74L409.893 234.479ZM268.078 271.662L337.072 181.248L380.892 286.199L268.078 271.662Z" fill="#221F1F"/>
<path d="M340.72 -5.75414L289.453 61.4259L402.266 75.9633L369.706 -2.01892L340.72 -5.75414ZM464.316 10.1728L447.579 32.1204L503.986 39.3892L493.302 13.9081L464.316 10.1728Z" fill="#808184"/>
<path d="M266.801 231.716L335.796 141.302L379.615 246.254L266.801 231.716Z" fill="#404041"/>
<path d="M380.468 267.993L449.404 177.571L493.224 282.523L380.468 267.993Z" fill="#808184"/>
<path d="M334.769 106.28L368.877 61.5828L390.538 113.467L334.769 106.28Z" fill="#58595B"/>
<path d="M428.499 109.754L462.607 65.0567L484.268 116.941L428.499 109.754Z" fill="#221F1F"/>
<path d="M366.039 201.6L400.146 156.902L421.808 208.786L366.039 201.6Z" fill="#404041"/>
<path d="M417.361 196.191L451.468 151.493L473.13 203.377L417.361 196.191Z" fill="#F1F1F2"/>
<path d="M236.593 78.3062L270.701 33.6086L292.363 85.4927L236.593 78.3062ZM197.583 159.678L231.691 114.98L253.353 166.864L197.583 159.678Z" fill="#A7A8AB"/>
<path d="M371.02 117.67L388.099 95.3543L398.904 121.264L371.02 117.67Z" fill="#BBBDBF"/>
<path d="M400.848 90.6321L405.38 84.7333L408.268 91.5883L400.848 90.6321Z" fill="white"/>
<path d="M279.13 106.772L313.238 62.0745L334.899 113.959L279.13 106.772Z" fill="#6D6E70"/>
<path d="M310.615 237.009L344.723 192.311L366.384 244.195L310.615 237.009Z" fill="#A6A8AB"/>
<path d="M313.552 196.84L326.391 179.989L334.48 199.537L313.552 196.84Z" fill="#231F20"/>
<path d="M373.924 217.703L390.952 195.322L401.808 221.297L373.924 217.703ZM379.616 148.835L396.637 126.511L407.5 152.428L379.616 148.835Z" fill="#A7A8AB"/>
<path d="M394.514 112.801L428.621 68.103L450.225 119.98L394.514 112.801Z" fill="#F1F1F2"/>
<path d="M261.145 119.66L295.252 74.9621L316.914 126.846L261.145 119.66Z" fill="#A6A8AB"/>
<path d="M258.958 195.168L271.943 178.1L280.176 197.902L258.958 195.168Z" fill="#59595C"/>
<path d="M407.808 189.832L420.792 172.764L429.025 192.567L407.808 189.832Z" fill="#A6A8AB"/>
<path d="M355.684 97.1884L368.661 80.1783L376.902 99.9226L355.684 97.1884Z" fill="white"/>
<path d="M340.945 211.568L353.929 194.5L362.162 214.302L340.945 211.568Z" fill="#58595B"/>
<path d="M253.182 85.8658L266.166 68.7978L274.458 88.6075L253.182 85.8658ZM382.473 262.947L395.45 245.937L403.691 265.681L382.473 262.947Z" fill="#59595C"/>
<path d="M439.311 137.904L452.295 120.836L460.529 140.638L439.311 137.904Z" fill="#808184"/>
<path d="M280.024 174.839L293.009 157.771L301.3 177.581L280.024 174.839Z" fill="#BBBDBF"/>
<path d="M291.045 212.799L304.029 195.731L312.321 215.541L291.045 212.799ZM274.649 135.603L287.684 118.601L295.925 138.345L274.649 135.603Z" fill="#F1F1F2"/>
<path d="M327.85 116.527L334.306 108.048L338.459 117.895L327.85 116.527Z" fill="#59595C"/>
<path d="M289.204 128.756L295.66 120.277L299.813 130.123L289.204 128.756Z" fill="#BBBDBF"/>
<path d="M327.307 93.2962L333.829 84.7659L337.974 94.6707L327.307 93.2962Z" fill="#E6E7E8"/>
<path d="M284.269 250.292L297.246 233.282L305.487 253.026L284.269 250.292Z" fill="#221F1F"/>
<path d="M304.905 287.723L317.89 270.655L326.123 290.457L304.905 287.723ZM549.196 241.939L562.239 224.879L570.472 244.681L549.196 241.939Z" fill="#59595C"/>
<path d="M375.366 86.2287L388.35 69.1606L396.642 88.9703L375.366 86.2287Z" fill="#808184"/>
<path d="M425.892 131.813L438.869 114.803L447.11 134.548L425.892 131.813Z" fill="white"/>
<path d="M189.32 226.093L202.297 209.083L210.595 228.835L189.32 226.093ZM408.596 239.97L421.638 222.909L429.872 242.711L408.596 239.97Z" fill="#808184"/>
<path d="M417.433 213.468L423.954 204.938L428.042 214.835L417.433 213.468Z" fill="#A7A8AB"/>
<path d="M383.376 126.512L391.107 116.369L396.014 128.14L383.376 126.512Z" fill="#D0D2D3"/>
</g>
</g>
<path d="M313.788 163.454C311.063 163.103 308.746 162.333 306.829 161.202C304.912 160.071 303.395 158.579 302.321 156.85C301.19 155.112 300.443 153.13 300.024 150.896C299.605 148.661 299.606 146.363 299.927 143.87C300.249 141.377 300.895 139.103 301.809 137.04C302.781 134.985 304.013 133.199 305.549 131.806C307.084 130.412 308.929 129.353 311.02 128.68C313.168 128.014 315.605 127.856 318.33 128.207C321.054 128.558 323.371 129.329 325.281 130.518C327.19 131.707 328.715 133.141 329.897 134.943C331.029 136.68 331.768 138.72 332.187 140.955C332.548 143.182 332.597 145.546 332.276 148.039C331.955 150.531 331.315 152.747 330.401 154.81C329.487 156.873 328.263 158.601 326.67 159.987C325.135 161.381 323.289 162.439 321.09 163.04C318.999 163.713 316.512 163.806 313.788 163.454ZM314.691 156.44C317.126 156.754 318.985 156.05 320.26 154.387C321.535 152.725 322.393 150.183 322.826 146.821C323.26 143.458 323.074 140.783 322.262 138.851C321.45 136.919 319.831 135.768 317.396 135.454C315.019 135.148 313.16 135.851 311.885 137.514C310.61 139.176 309.694 141.71 309.261 145.073C308.828 148.435 309.013 151.111 309.883 153.05C310.688 155.04 312.315 156.134 314.691 156.44ZM345.804 151.904C343.459 150.894 341.68 149.604 340.519 148.099C339.307 146.528 338.931 144.417 339.282 141.692C339.708 138.388 341.196 135.987 343.819 134.38C346.435 132.831 349.743 132.314 353.859 132.845C357.265 133.301 360.561 134.364 363.591 135.985C363.333 137.071 363.003 138.266 362.498 139.439C361.993 140.611 361.453 141.603 360.87 142.47C359.878 141.93 358.771 141.375 357.599 140.87C356.368 140.358 355.05 140.07 353.716 139.898C352.267 139.712 351.078 139.794 350.206 140.153C349.335 140.513 348.839 141.156 348.705 142.199C348.585 143.127 348.786 143.86 349.313 144.341C349.84 144.821 350.607 145.273 351.664 145.763L355.232 147.343C356.405 147.848 357.454 148.395 358.372 149.044C359.291 149.693 360.027 150.377 360.626 151.22C361.225 152.064 361.634 153 361.898 154.154C362.162 155.308 362.164 156.664 361.97 158.171C361.761 159.794 361.226 161.199 360.409 162.508C359.549 163.824 358.399 164.926 357.047 165.729C355.637 166.608 353.975 167.16 352.096 167.566C350.007 167.916 347.877 167.94 345.781 167.636C344.737 167.502 343.817 167.324 342.955 167.154C342.093 166.984 341.296 166.764 340.507 166.485C339.718 166.207 338.987 165.935 338.205 165.599C337.481 165.27 336.649 164.868 335.766 164.401C335.974 163.249 336.362 162.061 336.86 160.947C337.364 159.774 337.919 158.667 338.583 157.633C339.958 158.399 341.239 158.977 342.477 159.431C343.715 159.885 345.033 160.173 346.425 160.352C347.004 160.427 347.708 160.459 348.418 160.432C349.129 160.406 349.847 160.322 350.464 160.107C351.081 159.891 351.648 159.611 352.113 159.199C352.579 158.788 352.885 158.238 352.982 157.484C353.117 156.441 352.924 155.65 352.346 155.104C351.768 154.558 350.951 154.04 349.894 153.55L345.804 151.904ZM404.901 174.429C404.878 172.776 404.906 171.189 405.108 169.623C405.309 168.058 405.635 166.45 406.134 164.864C407.787 164.841 409.374 164.869 410.94 165.071C412.505 165.272 414.113 165.598 415.699 166.097C415.722 167.75 415.686 169.395 415.492 170.903C415.283 172.526 414.965 174.076 414.466 175.662C412.813 175.685 411.168 175.649 409.66 175.455C408.045 175.188 406.494 174.87 404.901 174.429ZM410.698 127.616C412.409 127.601 414.112 127.643 415.736 127.853C417.417 128.069 419.083 128.402 420.785 128.916L416.046 160.66C414.509 160.698 413.037 160.685 411.646 160.506C410.196 160.319 408.704 160.009 407.292 159.532L410.698 127.616Z" fill="white"/>
<path d="M372.08 152.768C373.241 154.273 375.02 155.563 377.365 156.573L381.455 158.219C382.512 158.709 383.329 159.227 383.907 159.773C384.485 160.319 384.678 161.11 384.543 162.153C384.446 162.907 384.14 163.457 383.674 163.868C383.208 164.28 382.642 164.56 382.025 164.776C381.408 164.991 380.69 165.075 379.979 165.101C379.268 165.128 378.565 165.096 377.986 165.021C376.594 164.842 375.276 164.554 374.038 164.1C372.8 163.646 371.519 163.068 370.144 162.302C369.48 163.336 368.925 164.443 368.42 165.616C367.923 166.73 367.534 167.918 367.327 169.07C368.21 169.537 369.042 169.939 369.766 170.268C370.547 170.604 371.279 170.876 372.068 171.154C372.857 171.433 373.654 171.653 374.516 171.823C375.378 171.993 376.298 172.171 377.342 172.305C379.438 172.609 381.568 172.585 383.657 172.235C385.536 171.829 387.198 171.277 388.608 170.398C389.96 169.595 391.11 168.493 391.97 167.177C392.787 165.868 393.322 164.463 393.531 162.84C393.725 161.333 393.723 159.977 393.459 158.823C393.195 157.669 392.785 156.733 392.187 155.889C391.588 155.046 390.851 154.362 389.933 153.713C389.015 153.064 387.966 152.517 386.793 152.012L383.225 150.432C382.168 149.942 381.401 149.49 380.874 149.01C380.347 148.529 380.146 147.796 380.266 146.868C380.4 145.825 380.896 145.182 381.767 144.822C382.638 144.463 383.828 144.381 385.277 144.567C386.61 144.739 387.929 145.027 389.159 145.539C390.332 146.044 391.439 146.599 392.43 147.139C393.014 146.272 393.554 145.28 394.059 144.108C394.563 142.935 394.894 141.74 395.152 140.654C392.122 139.033 388.826 137.97 385.42 137.514C381.304 136.983 377.996 137.5 375.38 139.049C372.757 140.656 371.268 143.057 370.843 146.361C370.492 149.086 370.868 151.197 372.08 152.768Z" fill="white"/>
<path d="M370.76 63.8883C322.759 57.7028 278.782 91.6399 272.596 139.641C266.411 187.642 300.348 231.619 348.349 237.805C396.35 243.99 440.327 210.053 446.513 162.052C452.698 114.051 418.761 70.0738 370.76 63.8883ZM349.469 229.109C306.222 223.536 275.719 184.009 281.292 140.761C286.865 97.5142 326.392 67.0112 369.64 72.5841C412.887 78.1571 443.39 117.684 437.817 160.932C432.244 204.179 392.717 234.682 349.469 229.109Z" fill="white"/>
</g>
<path d="M126.902 93.4666L111.802 94.6208C110.828 94.6733 109.978 93.9545 109.851 92.9896L108.229 71.4584L92.3232 72.7941C91.3486 72.8467 90.4991 72.1278 90.382 71.2372L90.3625 71.0887L89.2491 58.0223C89.2062 57.1219 89.9154 56.1982 90.806 56.0811L90.9544 56.0616L106.87 54.8002L105.285 34.6986C105.243 33.7982 105.877 32.8843 106.842 32.7574L106.991 32.7379L122.016 31.5935C122.981 31.4667 123.84 32.2598 123.967 33.2247L128.533 91.5157C128.586 92.4903 127.867 93.3398 126.902 93.4666ZM89.3724 98.0219L74.3059 100.002C73.3411 100.129 72.4173 99.4199 72.2905 98.4551L64.6717 40.4898C64.5449 39.5249 65.254 38.6012 66.2189 38.4744L81.2854 36.4941C82.2502 36.3673 83.1739 37.0764 83.3008 38.0412L90.9196 96.0065C91.0464 96.9714 90.3373 97.8951 89.3724 98.0219Z" fill="#008236"/>
<path d="M152.404 104.414L137.49 102.902L137.342 102.879C136.528 102.755 136.037 101.999 136.087 101.174L139.722 64.8515C139.857 63.9634 140.551 63.3874 141.45 63.4486L156.364 64.9612L156.512 64.9837C157.252 65.0963 157.817 65.8637 157.704 66.6038L154.058 103L154.035 103.148C153.923 103.888 153.155 104.453 152.404 104.414ZM160.949 53.241C160.037 59.2354 154.409 63.3764 148.415 62.4641C142.346 61.5406 138.205 55.9128 139.118 49.9184C140.041 43.8499 145.669 39.7089 151.737 40.6325C157.732 41.5448 161.873 47.1725 160.949 53.241Z" fill="#00A63E"/>
<path d="M215.785 97.8349L210.238 106.386C209.411 107.689 208.548 108.302 207.44 108.115C207.44 108.115 201.205 106.376 197.772 101.543C193.251 103.132 188.795 103.441 184.736 102.754C172.41 100.668 163.454 89.4342 165.465 77.551C166.989 68.5465 175.399 56.987 190.013 59.4602C193.187 59.9973 196.248 61.1987 198.743 62.6078L203.419 43.0521C203.705 41.8098 205.011 41.2716 206.487 41.5214L219.218 43.9038C221.285 44.2535 221.713 45.313 221.538 46.3463L221.501 46.5677C221.191 47.5022 213.62 77.8805 212.758 82.9733C211.734 89.0256 211.858 93.6777 214.659 95.5184C215.408 96.0249 216.158 96.5313 216.045 97.1956C216.008 97.417 215.97 97.6384 215.785 97.8349ZM194.48 89.1425C194.525 85.7336 194.892 81.7719 195.691 77.0481C195.129 75.4346 193.238 74.0515 191.023 73.6768C186.595 72.9273 183.103 76.5121 182.404 80.6454C181.704 84.7786 183.983 88.8086 188.707 89.608C190.331 89.8828 192.251 89.7522 194.48 89.1425Z" fill="#00C950"/>
<path d="M252.998 104.813L252.103 104.888C235.169 106.303 225.699 95.4505 224.752 84.1116C223.86 73.4442 230.46 61.625 247.468 60.2039C265.968 58.6582 268.167 75.0757 268.372 77.5374C268.659 80.9689 267.478 83.9221 263.202 85.7818C259.795 87.2683 254.344 88.5501 250.477 89.0234C249.284 89.1231 248.867 88.6321 248.494 87.7618C247.393 85.3749 245.57 80.6445 245.545 80.3461C245.477 79.5255 246.043 79.1027 246.994 78.7978C250.798 77.5786 251.308 77.3857 251.22 76.3414C251.164 75.67 249.547 73.4013 246.414 73.6631C242.834 73.9622 240.112 77.3447 240.498 81.9697C240.94 87.2662 245.318 92.9099 254.643 92.1308C255.165 92.0871 255.762 92.0373 256.278 91.919L256.427 91.9066C257.471 91.8193 258.796 92.3847 258.902 93.6529C258.964 94.3989 257.448 99.6336 256.541 102.263C256.044 103.507 255.162 104.632 252.998 104.813Z" fill="#05DF72"/>
<path d="M341.092 100.023L341.017 100.016L325.986 97.5142C324.353 97.2897 323.758 95.5815 323.833 94.7614L323.839 94.6869L330.288 62.8031L330.322 62.4304C330.37 61.9086 330.322 61.6036 330.099 61.5831C329.95 61.5695 329.706 61.7727 329.373 62.1181C327.861 63.8591 321.356 74.9908 317.076 81.515C316.723 82.0841 315.808 83.0528 314.161 82.9774L306.455 82.5735C305.113 82.4508 304.47 81.2644 304.105 80.3289C301.005 73.1298 296.585 61.4502 295.346 59.3825C295.082 58.9825 294.879 58.7384 294.655 58.7179C294.506 58.7043 294.404 58.9957 294.363 59.4429L294.316 59.9648L294.773 91.9539L294.766 92.0284C294.691 92.8484 293.504 94.3185 291.851 94.3176L277.429 94.2015L277.354 94.1947C276.161 94.0856 275.444 92.8925 275.539 91.8488L277.908 33.8838C277.983 33.0638 278.532 31.9865 279.962 31.967L294.723 32.4898L294.872 32.5035C295.916 32.5989 297.352 33.3316 297.616 33.7316C300.874 38.3893 306.872 50.063 312.024 61.133C312.153 61.3703 312.22 61.4517 312.369 61.4653C312.519 61.4789 312.607 61.3367 312.776 61.1267C319.85 51.1745 327.86 40.857 331.908 36.8673C332.24 36.5218 333.487 36.0345 334.531 36.1299L334.68 36.1436L349.447 38.2455C350.856 38.4496 351.208 39.5342 351.133 40.3542L351.12 40.5033L343.302 98.0452C343.132 99.082 342.21 100.125 341.092 100.023Z" fill="#AD46FF"/>
<path d="M365.564 123.654L355.122 118.52C354.043 117.973 353.574 117.331 353.64 116.585C353.686 116.063 353.956 115.561 354.375 115.072L367.622 98.7361C367.419 98.4926 367.303 98.1066 367.118 97.6393L355.971 64.862C355.794 64.3202 355.684 63.8596 355.717 63.4868C355.81 62.4429 356.764 61.8511 357.909 61.652L370.076 59.1986C370.381 59.1505 370.686 59.1024 370.984 59.1288C372.326 59.2478 373.209 60.3031 373.619 61.617L380.714 82.4617C385.702 76.2155 390.54 69.956 394.703 64.5384C395.216 63.8324 395.778 63.4313 396.598 63.504C397.046 63.5437 397.703 63.7523 398.409 64.2658L409.011 70.9924C409.866 71.5191 410.267 72.0807 410.207 72.7518C410.108 73.8703 403.086 88.6537 369.303 123.009C368.485 123.763 367.774 124.151 366.879 124.071C366.506 124.038 366.066 123.924 365.564 123.654Z" fill="#C27AFF"/>
<path d="M197.777 178.597L183.058 181.995C182.669 182.101 182.214 182.123 181.842 182.079C180.653 181.939 179.839 181.166 179.677 180.619L167.515 141.658C167.353 141.111 167.156 140.862 166.933 140.836C166.338 140.766 165.276 142.752 159.205 154.024L167.629 155.464C168.595 155.577 169.243 156.482 169.13 157.449L169.112 157.598L166.659 170.801C166.48 171.685 165.64 172.415 164.674 172.302L164.525 172.284L150.849 170.002C149.018 173.405 147.655 176.034 147.353 176.677C146.877 177.525 146.221 177.976 145.329 177.871C144.957 177.828 144.594 177.71 144.165 177.509L133.174 172.903C131.813 172.291 131.323 171.329 131.454 170.214C131.725 167.909 149.339 127.617 162.783 117.738C163.273 117.418 164.449 117.029 165.565 117.16L176.345 118.424C177.906 118.607 179.083 119.499 179.302 120.203L198.944 175.719C199.058 176.034 199.154 176.497 199.11 176.869C199.023 177.612 198.555 178.387 197.777 178.597Z" fill="#FB64B6"/>
<path d="M235.324 181.481L220.353 182.23H220.203C219.455 182.23 218.781 181.556 218.706 180.808L218.556 178.263C217.433 178.337 216.311 178.412 215.188 178.412C214.439 178.412 213.765 178.412 213.092 178.337C212.268 178.337 211.445 177.664 211.22 176.765L208.75 165.537C208.75 165.387 208.675 165.237 208.675 165.088C208.675 164.189 209.498 163.89 209.948 163.89H210.247C215.487 163.89 221.401 161.195 221.401 156.179C221.401 153.41 220.353 151.838 215.787 145.026C212.717 140.459 211.445 136.342 211.445 132.674C211.445 127.434 214.215 123.167 218.481 120.098L218.107 112.987V112.837C218.107 112.013 218.781 111.34 219.529 111.34L234.501 110.516C235.399 110.516 236.073 111.115 236.148 112.013L236.298 114.484C240.789 114.484 241.837 114.484 242.211 116.131L244.981 127.21C244.981 127.359 245.056 127.509 245.056 127.659C245.056 128.707 244.083 129.081 243.708 129.081H243.259C238.244 129.081 233.303 130.952 233.303 135.369C233.303 137.914 234.95 141.208 238.768 146.523C241.912 151.089 243.334 155.281 243.334 158.949C243.334 164.264 240.564 168.606 236.372 171.825L236.822 179.835C236.822 180.733 236.223 181.407 235.324 181.481Z" fill="#F6339A"/>
<path d="M265.423 172.363L264.604 172.451C262.967 172.626 262.19 172.408 261.608 171.191L257.407 162.909C257.308 162.693 257.21 162.478 257.194 162.329C257.074 161.213 258.547 160.904 259.44 160.808C263.824 160.263 265.684 157.955 265.492 156.169C265.389 155.201 264.293 154.114 263.107 152.886L260.858 150.869C257.184 147.499 255.501 144.442 255.197 141.613C254.295 133.203 265.948 127.435 275.698 126.389C278.601 126.078 279.378 126.296 280.042 127.579L284.318 135.854C284.499 136.136 284.523 136.359 284.547 136.582C284.635 137.401 283.848 137.787 282.88 137.891L282.582 137.922C278.117 138.402 276.564 140.074 276.724 141.562C276.86 142.828 278.128 144.122 281.292 146.945C285.115 150.299 286.963 153.489 287.266 156.317C288.209 165.1 275.397 171.293 265.423 172.363Z" fill="#E60076"/>
<path d="M119.683 136.277L100.966 120.456L77.7263 128.236M119.683 136.277L115.16 159.877L91.92 167.657M119.683 136.277L96.4431 144.056M91.92 167.657L73.2032 151.836L77.7263 128.236M91.92 167.657L96.4431 144.056M77.7263 128.236L96.4431 144.056" stroke="#51A2FF" stroke-width="5.34003" stroke-linecap="round" stroke-linejoin="round"/>
<path d="M244.404 198.618C244.034 200.47 244.414 202.393 245.461 203.964C246.509 205.535 248.138 206.626 249.989 206.996C251.841 207.366 253.764 206.986 255.335 205.939C256.906 204.891 257.997 203.263 258.368 201.411M232.768 196.29C233.262 193.822 234.716 191.65 236.811 190.253C238.906 188.857 241.47 188.35 243.939 188.843L262.557 192.567C265.026 193.061 267.197 194.516 268.594 196.611C269.99 198.705 270.498 201.269 270.004 203.738L266.28 222.356C265.786 224.825 264.332 226.997 262.237 228.393C260.142 229.79 257.578 230.297 255.109 229.803L236.491 226.079C234.022 225.586 231.85 224.131 230.454 222.036C229.057 219.941 228.55 217.377 229.044 214.908L232.768 196.29Z" stroke="#FF6900" stroke-width="4.74669" stroke-linecap="round" stroke-linejoin="round"/>
</g>
<defs>
<clipPath id="clip0_32_248">
<rect width="512" height="256" fill="white"/>
</clipPath>
<clipPath id="clip1_32_248">
<rect width="175.354" height="175.354" fill="white" transform="translate(283.802 52.6826) rotate(7.34282)"/>
</clipPath>
</defs>
</svg>
